<svg xmlns="http://www.w3.org/2000/svg" width="36" height="41" viewBox="0 0 36 41" fill="none">
<path fill-rule="evenodd" clip-rule="evenodd" d="M17.9997 2.45703C11.5156 2.46315 6.25272 8.38465 6.21973 15.7114C6.21973 20.9882 8.83973 25.4063 10.7597 28.6267L11.1097 29.2143C13.02 32.3427 15.0693 35.3597 17.2497 38.2539L18.0097 39.2595L18.7697 38.2539C20.9499 35.3595 22.9992 32.3424 24.9097 29.2143L25.2597 28.6154L25.2712 28.596C27.1802 25.3773 29.7897 20.9776 29.7897 15.7114C29.7567 8.38024 24.4878 2.45694 17.9997 2.45703ZM17.9995 18.4685C20.0596 18.4685 21.7295 16.5815 21.7295 14.2538C21.7295 11.9261 20.0596 10.0391 17.9995 10.0391C15.9395 10.0391 14.2695 11.9261 14.2695 14.2538C14.2695 16.5815 15.9395 18.4685 17.9995 18.4685ZM11.4395 14.2543C11.4395 18.3481 14.3765 21.6667 17.9995 21.6667C19.7393 21.6667 21.4078 20.8858 22.6381 19.4957C23.8683 18.1056 24.5595 16.2202 24.5595 14.2543C24.5595 10.1605 21.6224 6.8418 17.9995 6.8418C14.3765 6.8418 11.4395 10.1605 11.4395 14.2543Z" fill="#D22F23"/>
</svg>