<svg width="83" height="83" viewBox="0 0 83 83" fill="none" xmlns="http://www.w3.org/2000/svg">
<g id="Play">
<rect x="-0.0078125" y="-0.00683594" width="83.0153" height="83.0153" rx="40" fill="#6F6F6F" fill-opacity="0.3"/>
<rect x="0.492188" y="0.493164" width="82.0153" height="82.0153" rx="39.5" stroke="white" stroke-opacity="0.5"/>
<path id="Vector" d="M24.724 62.2547C23.9961 62.2547 23.2721 62.0558 22.6316 61.662C22.0555 61.3045 21.5801 60.8061 21.2501 60.2138C20.9202 59.6215 20.7467 58.9548 20.7461 58.2768V26.4537C20.7461 25.0734 21.4621 23.7925 22.6316 23.0686C23.209 22.7136 23.8672 22.5113 24.5443 22.4806C25.2214 22.45 25.8951 22.5921 26.5022 22.8935L58.3257 38.8051C58.9864 39.136 59.542 39.6443 59.9303 40.2731C60.3186 40.9019 60.5242 41.6263 60.5242 42.3653C60.5242 43.1043 60.3186 43.8287 59.9303 44.4575C59.542 45.0862 58.9864 45.5945 58.3257 45.9255L26.5022 61.837C25.9453 62.1155 25.3287 62.2547 24.724 62.2547Z" fill="white"/>
</g>
</svg>
